<svg width="36" height="36" viewBox="0 0 36 36" fill="none" xmlns="http://www.w3.org/2000/svg">
<circle r="18" transform="matrix(1 0 0 -1 18 18)" fill="url(#paint0_linear_201_1252)"/>
<path d="M14.8711 10.9878C14.3256 10.3643 14.3888 9.41666 15.0122 8.87113C15.6357 8.32561 16.5833 8.38879 17.1289 9.01224L14.8711 10.9878ZM23 18L24.1289 17.0122C24.6237 17.5778 24.6237 18.4222 24.1289 18.9878L23 18ZM17.1289 26.9878C16.5833 27.6112 15.6357 27.6744 15.0122 27.1289C14.3888 26.5833 14.3256 25.6357 14.8711 25.0122L17.1289 26.9878ZM17.1289 9.01224L24.1289 17.0122L21.8711 18.9878L14.8711 10.9878L17.1289 9.01224ZM24.1289 18.9878L17.1289 26.9878L14.8711 25.0122L21.8711 17.0122L24.1289 18.9878Z" fill="white"/>
<defs>
<linearGradient id="paint0_linear_201_1252" x1="30.92" y1="33.6" x2="3" y2="2.52" gradientUnits="userSpaceOnUse">
<stop stop-color="#68B551"/>
<stop offset="1" stop-color="#3AB177"/>
</linearGradient>
</defs>
</svg>
