<svg width="36" height="36" viewBox="0 0 36 36" fill="none" xmlns="http://www.w3.org/2000/svg">
<circle cx="18" cy="18" r="18" transform="rotate(180 18 18)" fill="url(#paint0_linear_201_1243)"/>
<path d="M15.1719 20.8287L20.8287 15.1719" stroke="#23262B" stroke-width="2" stroke-linecap="round" stroke-linejoin="round"/>
<path d="M13.7577 18.0001C14.1483 17.6096 14.1483 16.9764 13.7577 16.5859C13.3672 16.1953 12.734 16.1953 12.3435 16.5859L13.7577 18.0001ZM19.4146 23.6569C19.8051 23.2664 19.8051 22.6332 19.4146 22.2427C19.0241 21.8522 18.3909 21.8522 18.0004 22.2427L19.4146 23.6569ZM12.3435 16.5859L10.9293 18.0001L12.3435 19.4143L13.7577 18.0001L12.3435 16.5859ZM18.0004 25.0711L19.4146 23.6569L18.0004 22.2427L16.5862 23.6569L18.0004 25.0711ZM10.9293 25.0711C12.8819 27.0238 16.0478 27.0238 18.0004 25.0711L16.5862 23.6569C15.4146 24.8285 13.5151 24.8285 12.3435 23.6569L10.9293 25.0711ZM10.9293 18.0001C8.97669 19.9527 8.97669 23.1185 10.9293 25.0711L12.3435 23.6569C11.172 22.4854 11.172 20.5859 12.3435 19.4143L10.9293 18.0001Z" fill="#23262B"/>
<path d="M16.5859 12.343C16.1953 12.7336 16.1953 13.3667 16.5859 13.7572C16.9764 14.1478 17.6096 14.1478 18.0001 13.7572L16.5859 12.343ZM22.2427 17.9999C21.8522 18.3904 21.8522 19.0236 22.2427 19.4141C22.6332 19.8046 23.2664 19.8046 23.6569 19.4141L22.2427 17.9999ZM18.0001 13.7572L19.4143 12.343L18.0001 10.9288L16.5859 12.343L18.0001 13.7572ZM23.6569 16.5857L22.2427 17.9999L23.6569 19.4141L25.0711 17.9999L23.6569 16.5857ZM23.6569 12.343C24.8285 13.5146 24.8285 15.4141 23.6569 16.5857L25.0711 17.9999C27.0238 16.0473 27.0238 12.8814 25.0711 10.9288L23.6569 12.343ZM19.4143 12.343C20.5859 11.1715 22.4854 11.1715 23.6569 12.343L25.0711 10.9288C23.1185 8.9762 19.9527 8.9762 18.0001 10.9288L19.4143 12.343Z" fill="#23262B"/>
<defs>
<linearGradient id="paint0_linear_201_1243" x1="30.92" y1="33.6" x2="3" y2="2.52" gradientUnits="userSpaceOnUse">
<stop stop-color="#68B551"/>
<stop offset="1" stop-color="#3AB177"/>
</linearGradient>
</defs>
</svg>
