<svg width="36" height="36" viewBox="0 0 36 36" fill="none" xmlns="http://www.w3.org/2000/svg">
<circle cx="18" cy="18" r="18" transform="rotate(180 18 18)" fill="url(#paint0_linear_201_1236)"/>
<path d="M20.986 14.4743L18.4538 8.98442C18.2751 8.59699 17.7244 8.59699 17.5457 8.98442L15.0135 14.4743C14.9406 14.6322 14.791 14.741 14.6183 14.7614L8.61459 15.4733C8.19089 15.5235 8.02073 16.0472 8.33398 16.3369L12.7727 20.4417C12.9004 20.5597 12.9575 20.7357 12.9236 20.9062L11.7454 26.8361C11.6622 27.2545 12.1077 27.5782 12.48 27.3698L17.7555 24.4168C17.9073 24.3319 18.0922 24.3319 18.244 24.4168L23.5195 27.3698C23.8918 27.5782 24.3373 27.2545 24.2541 26.8361L23.0759 20.9062C23.042 20.7357 23.0991 20.5597 23.2268 20.4417L27.6655 16.3369C27.9788 16.0472 27.8086 15.5235 27.3849 15.4733L21.3812 14.7614C21.2085 14.741 21.0589 14.6322 20.986 14.4743Z" stroke="#23262B" stroke-width="2" stroke-linecap="round" stroke-linejoin="round"/>
<defs>
<linearGradient id="paint0_linear_201_1236" x1="30.92" y1="33.6" x2="3" y2="2.52" gradientUnits="userSpaceOnUse">
<stop stop-color="#68B551"/>
<stop offset="1" stop-color="#3AB177"/>
</linearGradient>
</defs>
</svg>
