<svg width="36" height="36" viewBox="0 0 36 36" fill="none" xmlns="http://www.w3.org/2000/svg">
<circle cx="18" cy="18" r="18" transform="rotate(180 18 18)" fill="url(#paint0_linear_201_1239)"/>
<path d="M29.0058 22.3402C28.2913 21.4567 27.4503 20.7028 26.6547 19.9021C25.9369 19.1805 25.8916 18.7618 26.4686 17.9289C27.0984 17.0198 27.7757 16.1456 28.4111 15.2406C29.0043 14.3948 29.6107 13.5514 29.9229 12.5387C30.1208 11.8945 29.9457 11.6099 29.3048 11.4971C29.1944 11.4774 29.0802 11.4763 28.9678 11.4763L25.1651 11.4717C24.6968 11.4645 24.4378 11.675 24.2722 12.1029C24.0486 12.6813 23.818 13.2591 23.5516 13.8172C22.9473 15.0827 22.2722 16.3058 21.3259 17.3415C21.1172 17.5699 20.8864 17.8586 20.5377 17.7397C20.1014 17.5756 19.9728 16.8347 19.98 16.5842L19.9763 12.0601C19.8917 11.4138 19.7527 11.1256 19.1302 11L15.18 11.0008C14.6527 11.0008 14.3883 11.2107 14.1068 11.5507C13.9443 11.7471 13.8953 11.8745 14.2291 11.9396C14.8848 12.0678 15.2541 12.5051 15.3521 13.1827C15.5093 14.2654 15.4983 15.3524 15.4078 16.4394C15.3812 16.7567 15.3282 17.0734 15.2061 17.3697C15.0151 17.8355 14.7067 17.9304 14.3015 17.6438C13.9346 17.3843 13.677 17.0182 13.4248 16.6506C12.4774 15.2708 11.7215 13.7829 11.1052 12.2193C10.9271 11.7676 10.6199 11.4938 10.1556 11.4863C9.01471 11.4676 7.87358 11.4645 6.7327 11.4874C6.04624 11.5007 5.84154 11.8442 6.1211 12.4857C7.36371 15.3347 8.74684 18.1045 10.5523 20.6277C11.4793 21.9226 12.5435 23.0657 13.9185 23.8758C15.4767 24.7941 17.1541 25.0705 18.9207 24.9854C19.748 24.9454 19.9964 24.7236 20.0347 23.8738C20.0606 23.2923 20.1245 22.7142 20.4029 22.1918C20.6759 21.679 21.0896 21.5813 21.5664 21.9003C21.8049 22.06 22.0058 22.2633 22.1956 22.4776C22.6612 23.0026 23.1102 23.5436 23.5934 24.0509C24.1996 24.6867 24.9176 25.0623 25.8205 24.9857L29.3155 24.9864C29.8786 24.9485 30.1706 24.2368 29.8472 23.589C29.6202 23.1352 29.3222 22.7312 29.0058 22.3402Z" fill="#23262B"/>
<defs>
<linearGradient id="paint0_linear_201_1239" x1="30.92" y1="33.6" x2="3" y2="2.52" gradientUnits="userSpaceOnUse">
<stop stop-color="#68B551"/>
<stop offset="1" stop-color="#3AB177"/>
</linearGradient>
</defs>
</svg>
