<svg width="36" height="36" viewBox="0 0 36 36" fill="none" xmlns="http://www.w3.org/2000/svg">
<circle cx="18" cy="18" r="18" transform="rotate(180 18 18)" fill="url(#paint0_linear_201_1257)"/>
<path d="M21.1289 10.9878C21.6744 10.3643 21.6112 9.41666 20.9878 8.87113C20.3643 8.32561 19.4167 8.38879 18.8711 9.01224L21.1289 10.9878ZM13 18L11.8711 17.0122C11.3763 17.5778 11.3763 18.4222 11.8711 18.9878L13 18ZM18.8711 26.9878C19.4167 27.6112 20.3643 27.6744 20.9878 27.1289C21.6112 26.5833 21.6744 25.6357 21.1289 25.0122L18.8711 26.9878ZM18.8711 9.01224L11.8711 17.0122L14.1289 18.9878L21.1289 10.9878L18.8711 9.01224ZM11.8711 18.9878L18.8711 26.9878L21.1289 25.0122L14.1289 17.0122L11.8711 18.9878Z" fill="white"/>
<defs>
<linearGradient id="paint0_linear_201_1257" x1="30.92" y1="33.6" x2="3" y2="2.52" gradientUnits="userSpaceOnUse">
<stop stop-color="#68B551"/>
<stop offset="1" stop-color="#3AB177"/>
</linearGradient>
</defs>
</svg>
