<svg width="30" height="30" viewBox="0 0 30 30" fill="none" xmlns="http://www.w3.org/2000/svg">
<path d="M11.8786 5.32152L10.7553 5.77086L11.8786 5.32152ZM13.1964 8.6161L14.3198 8.16676L13.1964 8.6161ZM12.7958 11.145L13.7253 11.9196L12.7958 11.145ZM12.0866 11.9961L13.016 12.7707L12.0866 11.9961ZM12.2394 15.3644L11.3838 16.2199V16.2199L12.2394 15.3644ZM14.6357 17.7607L15.4912 16.9051L14.6357 17.7607ZM18.0039 17.9134L17.2293 16.984L18.0039 17.9134ZM18.855 17.2042L19.6295 18.1337L19.6295 18.1337L18.855 17.2042ZM21.3839 16.8036L20.9346 17.9269L21.3839 16.8036ZM24.6785 18.1214L25.1278 16.998L24.6785 18.1214ZM6.11842 4.95988H9.55742V2.54012H6.11842V4.95988ZM10.7553 5.77086L12.0731 9.06544L14.3198 8.16676L13.002 4.87219L10.7553 5.77086ZM11.8664 10.3705L11.1571 11.2216L13.016 12.7707L13.7253 11.9196L11.8664 10.3705ZM11.3838 16.2199L13.7801 18.6162L15.4912 16.9051L13.0949 14.5088L11.3838 16.2199ZM18.7784 18.8429L19.6295 18.1337L18.0804 16.2747L17.2293 16.984L18.7784 18.8429ZM20.9346 17.9269L24.2291 19.2447L25.1278 16.998L21.8332 15.6802L20.9346 17.9269ZM25.0401 20.4426V23.8816H27.4599V20.4426H25.0401ZM23.8816 25.0401C13.4314 25.0401 4.95988 16.5686 4.95988 6.11842H2.54012C2.54012 17.905 12.095 27.4599 23.8816 27.4599V25.0401ZM25.0401 23.8816C25.0401 24.5214 24.5214 25.0401 23.8816 25.0401V27.4599C25.8578 27.4599 27.4599 25.8578 27.4599 23.8816H25.0401ZM24.2291 19.2447C24.7189 19.4407 25.0401 19.915 25.0401 20.4426H27.4599C27.4599 18.9256 26.5363 17.5614 25.1278 16.998L24.2291 19.2447ZM19.6295 18.1337C19.9935 17.8303 20.4946 17.7509 20.9346 17.9269L21.8332 15.6802C20.568 15.1741 19.1272 15.4024 18.0804 16.2747L19.6295 18.1337ZM13.7801 18.6162C15.1369 19.9729 17.3044 20.0712 18.7784 18.8429L17.2293 16.984C16.7167 17.4112 15.963 17.377 15.4912 16.9051L13.7801 18.6162ZM11.1571 11.2216C9.92875 12.6956 10.0271 14.8631 11.3838 16.2199L13.0949 14.5088C12.623 14.037 12.5889 13.2833 13.016 12.7707L11.1571 11.2216ZM12.0731 9.06544C12.2491 9.50541 12.1697 10.0065 11.8663 10.3705L13.7253 11.9196C14.5976 10.8728 14.8259 9.43196 14.3198 8.16676L12.0731 9.06544ZM9.55742 4.95988C10.085 4.95988 10.5593 5.28105 10.7553 5.77086L13.002 4.87219C12.4386 3.4637 11.0744 2.54012 9.55742 2.54012V4.95988ZM6.11842 2.54012C4.14218 2.54012 2.54012 4.14218 2.54012 6.11842H4.95988C4.95988 5.47857 5.47857 4.95988 6.11842 4.95988V2.54012Z" fill="url(#paint0_linear_156_398)"/>
<defs>
<linearGradient id="paint0_linear_156_398" x1="23.075" y1="24.75" x2="5.625" y2="5.325" gradientUnits="userSpaceOnUse">
<stop stop-color="#68B551"/>
<stop offset="1" stop-color="#3AB177"/>
</linearGradient>
</defs>
</svg>
