<svg width="30" height="30" viewBox="0 0 30 30" fill="none" xmlns="http://www.w3.org/2000/svg">
<path d="M15 25H14C14 25.4407 14.2885 25.8294 14.7102 25.9571C15.132 26.0848 15.5876 25.9214 15.8321 25.5547L15 25ZM16.3868 22.9199L17.2188 23.4746L16.3868 22.9199ZM25 5.25H18.75V7.25H25V5.25ZM14 10V25H16V10H14ZM27.25 20V7.5H25.25V20H27.25ZM15.8321 25.5547L17.2188 23.4746L15.5547 22.3652L14.1679 24.4453L15.8321 25.5547ZM19.5069 22.25H25V20.25H19.5069V22.25ZM17.2188 23.4746C17.7288 22.7095 18.5875 22.25 19.5069 22.25V20.25C17.9188 20.25 16.4357 21.0437 15.5547 22.3652L17.2188 23.4746ZM25.25 20C25.25 20.1381 25.1381 20.25 25 20.25V22.25C26.2426 22.25 27.25 21.2426 27.25 20H25.25ZM18.75 5.25C16.1266 5.25 14 7.37665 14 10H16C16 8.48122 17.2312 7.25 18.75 7.25V5.25ZM25 7.25C25.1381 7.25 25.25 7.36193 25.25 7.5H27.25C27.25 6.25736 26.2426 5.25 25 5.25V7.25Z" fill="url(#paint0_linear_156_428)"/>
<path d="M15 25L14.1679 25.5547C14.4124 25.9214 14.868 26.0848 15.2898 25.9571C15.7115 25.8294 16 25.4407 16 25H15ZM13.6132 22.9199L12.7812 23.4746L13.6132 22.9199ZM5 7.25H11.25V5.25H5V7.25ZM14 10V25H16V10H14ZM4.75 20V7.5H2.75V20H4.75ZM15.8321 24.4453L14.4453 22.3652L12.7812 23.4746L14.1679 25.5547L15.8321 24.4453ZM10.4931 20.25H5V22.25H10.4931V20.25ZM14.4453 22.3652C13.5643 21.0437 12.0812 20.25 10.4931 20.25V22.25C11.4125 22.25 12.2712 22.7095 12.7812 23.4746L14.4453 22.3652ZM2.75 20C2.75 21.2426 3.75736 22.25 5 22.25V20.25C4.86193 20.25 4.75 20.1381 4.75 20H2.75ZM11.25 7.25C12.7688 7.25 14 8.48122 14 10H16C16 7.37665 13.8734 5.25 11.25 5.25V7.25ZM5 5.25C3.75736 5.25 2.75 6.25736 2.75 7.5H4.75C4.75 7.36193 4.86193 7.25 5 7.25V5.25Z" fill="url(#paint1_linear_156_428)"/>
<defs>
<linearGradient id="paint0_linear_156_428" x1="24.6625" y1="23.75" x2="11.1525" y2="14.7266" gradientUnits="userSpaceOnUse">
<stop stop-color="#68B551"/>
<stop offset="1" stop-color="#3AB177"/>
</linearGradient>
<linearGradient id="paint1_linear_156_428" x1="13.4125" y1="23.75" x2="-0.0974543" y2="14.7266" gradientUnits="userSpaceOnUse">
<stop stop-color="#68B551"/>
<stop offset="1" stop-color="#3AB177"/>
</linearGradient>
</defs>
</svg>
