<svg width="30" height="30" viewBox="0 0 30 30" fill="none" xmlns="http://www.w3.org/2000/svg">
<path d="M2.5 25H27.5" stroke="url(#paint0_linear_156_425)" stroke-width="2" stroke-linecap="round" stroke-linejoin="round"/>
<path d="M12.7104 10.7506L13.3787 10.0067V10.0067L12.7104 10.7506ZM18.3354 15.804L17.6671 16.5479V16.5479L18.3354 15.804ZM18.75 25.0001V26.0001C19.3023 26.0001 19.75 25.5523 19.75 25.0001H18.75ZM5.41462 15.804L6.08292 16.5479H6.08292L5.41462 15.804ZM11.0396 10.7506L11.7079 11.4944L11.7079 11.4944L11.0396 10.7506ZM12.0421 11.4944L17.6671 16.5479L19.0037 15.0602L13.3787 10.0067L12.0421 11.4944ZM17.75 16.7339V25.0001H19.75V16.7339H17.75ZM6 23.7501V16.7339H4V23.7501H6ZM6.08292 16.5479L11.7079 11.4944L10.3713 10.0067L4.74631 15.0602L6.08292 16.5479ZM18.75 24.0001H6.25V26.0001H18.75V24.0001ZM6 16.7339C6 16.6629 6.03015 16.5953 6.08292 16.5479L4.74631 15.0602C4.27131 15.4869 4 16.0954 4 16.7339H6ZM4 23.7501C4 24.9927 5.00736 26.0001 6.25 26.0001V24.0001C6.11193 24.0001 6 23.8881 6 23.7501H4ZM17.6671 16.5479C17.7199 16.5953 17.75 16.6629 17.75 16.7339H19.75C19.75 16.0954 19.4787 15.4869 19.0037 15.0601L17.6671 16.5479ZM13.3787 10.0067C12.5235 9.23834 11.2265 9.23833 10.3713 10.0067L11.7079 11.4944C11.8029 11.4091 11.947 11.4091 12.0421 11.4944L13.3787 10.0067Z" fill="url(#paint1_linear_156_425)"/>
<path d="M18.5938 25H23.75C24.4404 25 25 24.4404 25 23.75V6.25C25 5.55964 24.4404 5 23.75 5H10C9.30964 5 8.75 5.55964 8.75 6.25V12.5" stroke="url(#paint2_linear_156_425)" stroke-width="2" stroke-linecap="round" stroke-linejoin="round"/>
<defs>
<linearGradient id="paint0_linear_156_425" x1="23.9722" y1="25.9333" x2="23.9162" y2="24.3753" gradientUnits="userSpaceOnUse">
<stop stop-color="#68B551"/>
<stop offset="1" stop-color="#3AB177"/>
</linearGradient>
<linearGradient id="paint1_linear_156_425" x1="16.8097" y1="24.0287" x2="5.45895" y2="12.1041" gradientUnits="userSpaceOnUse">
<stop stop-color="#68B551"/>
<stop offset="1" stop-color="#3AB177"/>
</linearGradient>
<linearGradient id="paint2_linear_156_425" x1="22.7069" y1="23.6667" x2="7.18491" y2="9.62762" gradientUnits="userSpaceOnUse">
<stop stop-color="#68B551"/>
<stop offset="1" stop-color="#3AB177"/>
</linearGradient>
</defs>
</svg>
