<svg width="30" height="30" viewBox="0 0 30 30" fill="none" xmlns="http://www.w3.org/2000/svg">
<path d="M8.98121 24.5063L9.62938 23.4847C9.32223 23.2898 8.9437 23.2434 8.59861 23.3585L8.98121 24.5063ZM3.75 26.25L2.60221 25.8674C2.45729 26.3022 2.57044 26.7815 2.89449 27.1055C3.21853 27.4296 3.69785 27.5427 4.1326 27.3978L3.75 26.25ZM5.49374 21.0188L6.64153 21.4014C6.75656 21.0563 6.71022 20.6778 6.51534 20.3706L5.49374 21.0188ZM15 27.4599C21.8814 27.4599 27.4599 21.8814 27.4599 15H25.0401C25.0401 20.545 20.545 25.0401 15 25.0401V27.4599ZM8.33304 25.5279C10.2616 26.7515 12.5499 27.4599 15 27.4599V25.0401C13.0224 25.0401 11.1818 24.4696 9.62938 23.4847L8.33304 25.5279ZM8.59861 23.3585L3.3674 25.1022L4.1326 27.3978L9.36381 25.6541L8.59861 23.3585ZM4.89779 26.6326L6.64153 21.4014L4.34595 20.6362L2.60221 25.8674L4.89779 26.6326ZM2.54012 15C2.54012 17.4501 3.24852 19.7384 4.47213 21.667L6.51534 20.3706C5.53039 18.8182 4.95988 16.9776 4.95988 15H2.54012ZM15 2.54012C8.1186 2.54012 2.54012 8.1186 2.54012 15H4.95988C4.95988 9.45499 9.45499 4.95988 15 4.95988V2.54012ZM27.4599 15C27.4599 8.1186 21.8814 2.54012 15 2.54012V4.95988C20.545 4.95988 25.0401 9.45499 25.0401 15H27.4599Z" fill="white"/>
<path d="M20 15H20.002V15.002H20V15Z" stroke="white" stroke-width="2.41975" stroke-linecap="round" stroke-linejoin="round"/>
<path d="M15.001 15H15.003V15.002H15.001V15Z" stroke="white" stroke-width="2.41975" stroke-linecap="round" stroke-linejoin="round"/>
<path d="M10 15H10.002V15.002H10V15Z" stroke="white" stroke-width="2.41975" stroke-linecap="round" stroke-linejoin="round"/>
</svg>
