<svg width="11" height="20" viewBox="0 0 11 20" fill="none" xmlns="http://www.w3.org/2000/svg">
<path d="M0.871135 2.98776C0.325611 2.3643 0.388787 1.41666 1.01224 0.871135C1.6357 0.325612 2.58334 0.388788 3.12886 1.01224L0.871135 2.98776ZM9 10L10.1289 9.01224C10.6237 9.57778 10.6237 10.4222 10.1289 10.9878L9 10ZM3.12887 18.9878C2.58334 19.6112 1.6357 19.6744 1.01224 19.1289C0.388788 18.5833 0.325612 17.6357 0.871136 17.0122L3.12887 18.9878ZM3.12886 1.01224L10.1289 9.01224L7.87113 10.9878L0.871135 2.98776L3.12886 1.01224ZM10.1289 10.9878L3.12887 18.9878L0.871136 17.0122L7.87113 9.01224L10.1289 10.9878Z" fill="white"/>
</svg>
