<svg width="11" height="20" viewBox="0 0 11 20" fill="none" xmlns="http://www.w3.org/2000/svg">
<path d="M10.1289 2.98776C10.6744 2.3643 10.6112 1.41666 9.98776 0.871135C9.3643 0.325612 8.41666 0.388788 7.87114 1.01224L10.1289 2.98776ZM2 10L0.871135 9.01224C0.376288 9.57778 0.376288 10.4222 0.871135 10.9878L2 10ZM7.87113 18.9878C8.41666 19.6112 9.3643 19.6744 9.98776 19.1289C10.6112 18.5833 10.6744 17.6357 10.1289 17.0122L7.87113 18.9878ZM7.87114 1.01224L0.871135 9.01224L3.12887 10.9878L10.1289 2.98776L7.87114 1.01224ZM0.871135 10.9878L7.87113 18.9878L10.1289 17.0122L3.12887 9.01224L0.871135 10.9878Z" fill="white"/>
</svg>
