<svg width="198" height="47" viewBox="0 0 198 47" fill="none" xmlns="http://www.w3.org/2000/svg">
<path d="M11.2316 35.5868L9.56056 43.9418H8.41473L9.63218 37.9023L5.68143 42.9273H5.13239L3.04362 37.7829L1.81424 43.9418H0.668404L2.33941 35.5868H3.30621L5.63369 41.4711L10.2051 35.5868H11.2316ZM14.99 44.0134C14.3932 44.0134 13.8721 43.902 13.4264 43.6792C12.9808 43.4485 12.6347 43.1262 12.388 42.7124C12.1414 42.2986 12.018 41.8212 12.018 41.2801C12.018 40.5719 12.1772 39.9354 12.4955 39.3704C12.8137 38.8054 13.2554 38.3638 13.8203 38.0455C14.3853 37.7193 15.0219 37.5562 15.7301 37.5562C16.3268 37.5562 16.848 37.6676 17.2936 37.8904C17.7392 38.1132 18.0814 38.4314 18.3201 38.8452C18.5668 39.251 18.6901 39.7285 18.6901 40.2775C18.6901 40.9857 18.531 41.6263 18.2127 42.1992C17.8944 42.7641 17.4528 43.2097 16.8878 43.536C16.3308 43.8543 15.6982 44.0134 14.99 44.0134ZM15.0617 43.0108C15.5311 43.0108 15.9529 42.8994 16.3268 42.6766C16.7088 42.4459 17.0032 42.1276 17.2101 41.7217C17.4249 41.3159 17.5324 40.8544 17.5324 40.3372C17.5324 39.7722 17.3692 39.3346 17.043 39.0243C16.7167 38.7139 16.2513 38.5588 15.6465 38.5588C15.177 38.5588 14.7553 38.6741 14.3813 38.9049C14.0073 39.1277 13.7129 39.442 13.4981 39.8478C13.2832 40.2536 13.1758 40.7152 13.1758 41.2324C13.1758 41.7894 13.3389 42.227 13.6652 42.5453C13.9994 42.8556 14.4649 43.0108 15.0617 43.0108ZM25.2656 38.6184H22.9262L21.8878 43.9418H20.742L21.7804 38.6184H19.4887L19.6797 37.6158H25.4566L25.2656 38.6184ZM28.1031 44.0134C27.5063 44.0134 26.9851 43.902 26.5395 43.6792C26.0939 43.4485 25.7478 43.1262 25.5011 42.7124C25.2544 42.2986 25.1311 41.8212 25.1311 41.2801C25.1311 40.5719 25.2902 39.9354 25.6085 39.3704C25.9268 38.8054 26.3684 38.3638 26.9334 38.0455C27.4983 37.7193 28.1349 37.5562 28.8431 37.5562C29.4399 37.5562 29.9611 37.6676 30.4067 37.8904C30.8523 38.1132 31.1944 38.4314 31.4332 38.8452C31.6798 39.251 31.8032 39.7285 31.8032 40.2775C31.8032 40.9857 31.644 41.6263 31.3257 42.1992C31.0075 42.7641 30.5658 43.2097 30.0009 43.536C29.4439 43.8543 28.8113 44.0134 28.1031 44.0134ZM28.1747 43.0108C28.6442 43.0108 29.0659 42.8994 29.4399 42.6766C29.8218 42.4459 30.1162 42.1276 30.3231 41.7217C30.538 41.3159 30.6454 40.8544 30.6454 40.3372C30.6454 39.7722 30.4823 39.3346 30.156 39.0243C29.8298 38.7139 29.3643 38.5588 28.7595 38.5588C28.2901 38.5588 27.8683 38.6741 27.4944 38.9049C27.1204 39.1277 26.826 39.442 26.6111 39.8478C26.3963 40.2536 26.2888 40.7152 26.2888 41.2324C26.2888 41.7894 26.452 42.227 26.7782 42.5453C27.1124 42.8556 27.5779 43.0108 28.1747 43.0108ZM43.0877 37.6158L41.8345 43.9418H32.8229L34.0881 37.6158H35.234L34.1836 42.9392H36.9885L38.0269 37.6158H39.1728L38.1344 42.9392H40.9035L41.9419 37.6158H43.0877ZM48.022 40.743L49.9795 43.9418H48.6546L47.1149 41.2682H45.7423L45.2052 43.9418H44.0594L45.3365 37.6158H46.4823L45.9452 40.2895H47.2343L49.8363 37.6158H51.1134L48.022 40.743ZM53.9795 44.0134C53.3827 44.0134 52.8615 43.902 52.4159 43.6792C51.9703 43.4485 51.6242 43.1262 51.3775 42.7124C51.1308 42.2986 51.0075 41.8212 51.0075 41.2801C51.0075 40.5719 51.1666 39.9354 51.4849 39.3704C51.8032 38.8054 52.2448 38.3638 52.8098 38.0455C53.3747 37.7193 54.0113 37.5562 54.7195 37.5562C55.3163 37.5562 55.8375 37.6676 56.2831 37.8904C56.7287 38.1132 57.0709 38.4314 57.3096 38.8452C57.5562 39.251 57.6796 39.7285 57.6796 40.2775C57.6796 40.9857 57.5204 41.6263 57.2021 42.1992C56.8839 42.7641 56.4422 43.2097 55.8773 43.536C55.3203 43.8543 54.6877 44.0134 53.9795 44.0134ZM54.0511 43.0108C54.5206 43.0108 54.9423 42.8994 55.3163 42.6766C55.6982 42.4459 55.9927 42.1276 56.1995 41.7217C56.4144 41.3159 56.5218 40.8544 56.5218 40.3372C56.5218 39.7722 56.3587 39.3346 56.0324 39.0243C55.7062 38.7139 55.2407 38.5588 54.636 38.5588C54.1665 38.5588 53.7447 38.6741 53.3708 38.9049C52.9968 39.1277 52.7024 39.442 52.4875 39.8478C52.2727 40.2536 52.1652 40.7152 52.1652 41.2324C52.1652 41.7894 52.3284 42.227 52.6546 42.5453C52.9888 42.8556 53.4543 43.0108 54.0511 43.0108ZM65.3487 37.6158L64.0835 43.9418H62.9377L63.9999 38.6184H61.2786L60.9325 40.0269C60.7017 40.9579 60.4709 41.7098 60.2402 42.2827C60.0094 42.8556 59.7389 43.2933 59.4285 43.5957C59.1262 43.8901 58.7601 44.0373 58.3305 44.0373C58.1236 44.0373 57.8809 44.0015 57.6024 43.9299L57.8769 42.9631C57.9803 42.9869 58.0758 42.9989 58.1633 42.9989C58.5692 42.9989 58.8994 42.7522 59.154 42.2589C59.4086 41.7576 59.6673 40.9857 59.9298 39.9433L60.5028 37.6158H65.3487ZM73.5916 37.6158L72.3383 43.9418H71.2402L71.3954 43.166C71.1089 43.4365 70.7747 43.6474 70.3928 43.7986C70.0188 43.9418 69.609 44.0134 69.1634 44.0134C68.6223 44.0134 68.1409 43.906 67.7192 43.6912C67.2974 43.4684 66.9672 43.1501 66.7285 42.7363C66.4898 42.3225 66.3704 41.8371 66.3704 41.2801C66.3704 40.564 66.5256 39.9234 66.8359 39.3585C67.1462 38.7935 67.5719 38.3519 68.113 38.0336C68.6621 37.7153 69.2748 37.5562 69.9511 37.5562C70.4922 37.5562 70.9537 37.6516 71.3357 37.8426C71.7256 38.0336 72.024 38.3161 72.2309 38.6901L72.4457 37.6158H73.5916ZM69.414 43.0108C69.8835 43.0108 70.3052 42.8994 70.6792 42.6766C71.0612 42.4459 71.3556 42.1276 71.5625 41.7217C71.7773 41.3159 71.8847 40.8544 71.8847 40.3372C71.8847 39.7722 71.7216 39.3346 71.3954 39.0243C71.0691 38.7139 70.6036 38.5588 69.9989 38.5588C69.5294 38.5588 69.1077 38.6741 68.7337 38.9049C68.3597 39.1277 68.0653 39.442 67.8504 39.8478C67.6356 40.2536 67.5282 40.7152 67.5282 41.2324C67.5282 41.7894 67.6913 42.227 68.0175 42.5453C68.3517 42.8556 68.8172 43.0108 69.414 43.0108ZM82.71 40.6833C83.0363 40.7788 83.279 40.934 83.4381 41.1488C83.5973 41.3557 83.6768 41.6302 83.6768 41.9724C83.6768 42.5851 83.4262 43.0665 82.9249 43.4166C82.4315 43.7667 81.7472 43.9418 80.8719 43.9418H77.7686L79.0457 37.6158H81.9342C82.6185 37.6158 83.1397 37.7392 83.4978 37.9858C83.8638 38.2325 84.0468 38.5906 84.0468 39.0601C84.0468 39.442 83.9275 39.7762 83.6888 40.0627C83.458 40.3412 83.1318 40.5481 82.71 40.6833ZM79.6187 40.3372H81.3374C81.7989 40.3372 82.1689 40.2377 82.4474 40.0388C82.7339 39.8399 82.8771 39.5813 82.8771 39.263C82.8771 38.7537 82.4912 38.4991 81.7194 38.4991H79.9767L79.6187 40.3372ZM80.9077 43.0586C81.4249 43.0586 81.8308 42.9591 82.1252 42.7602C82.4196 42.5612 82.5668 42.2827 82.5668 41.9247C82.5668 41.6621 82.4713 41.4711 82.2803 41.3517C82.0973 41.2244 81.8029 41.1608 81.3971 41.1608H79.4516L79.0816 43.0586H80.9077ZM93.2352 35.5868C94.2059 35.5868 94.9579 35.8016 95.491 36.2313C96.0321 36.653 96.3027 37.2538 96.3027 38.0336C96.3027 38.7418 96.1435 39.3505 95.8252 39.8598C95.5149 40.3611 95.0653 40.747 94.4765 41.0175C93.8876 41.2801 93.1914 41.4114 92.3877 41.4114H90.1557L89.6544 43.9418H88.4608L90.1319 35.5868H93.2352ZM92.4116 40.373C93.271 40.373 93.9354 40.182 94.4049 39.8001C94.8743 39.4181 95.1091 38.8651 95.1091 38.141C95.1091 37.6477 94.938 37.2737 94.5958 37.019C94.2537 36.7565 93.7643 36.6252 93.1277 36.6252H91.1225L90.3706 40.373H92.4116ZM99.7877 44.0134C99.1909 44.0134 98.6697 43.902 98.2241 43.6792C97.7785 43.4485 97.4324 43.1262 97.1857 42.7124C96.939 42.2986 96.8157 41.8212 96.8157 41.2801C96.8157 40.5719 96.9748 39.9354 97.2931 39.3704C97.6114 38.8054 98.053 38.3638 98.618 38.0455C99.183 37.7193 99.8195 37.5562 100.528 37.5562C101.125 37.5562 101.646 37.6676 102.091 37.8904C102.537 38.1132 102.879 38.4314 103.118 38.8452C103.364 39.251 103.488 39.7285 103.488 40.2775C103.488 40.9857 103.329 41.6263 103.01 42.1992C102.692 42.7641 102.25 43.2097 101.686 43.536C101.128 43.8543 100.496 44.0134 99.7877 44.0134ZM99.8593 43.0108C100.329 43.0108 100.751 42.8994 101.125 42.6766C101.506 42.4459 101.801 42.1276 102.008 41.7217C102.223 41.3159 102.33 40.8544 102.33 40.3372C102.33 39.7722 102.167 39.3346 101.841 39.0243C101.514 38.7139 101.049 38.5588 100.444 38.5588C99.9747 38.5588 99.553 38.6741 99.179 38.9049C98.805 39.1277 98.5106 39.442 98.2957 39.8478C98.0809 40.2536 97.9735 40.7152 97.9735 41.2324C97.9735 41.7894 98.1366 42.227 98.4628 42.5453C98.797 42.8556 99.2625 43.0108 99.8593 43.0108ZM107.563 44.0134C106.958 44.0134 106.429 43.902 105.976 43.6792C105.522 43.4485 105.172 43.1302 104.925 42.7244C104.679 42.3106 104.555 41.8292 104.555 41.2801C104.555 40.5719 104.714 39.9354 105.033 39.3704C105.351 38.8054 105.793 38.3638 106.358 38.0455C106.923 37.7193 107.563 37.5562 108.279 37.5562C109.529 37.5562 110.396 38.0137 110.881 38.9288L109.914 39.4659C109.58 38.8611 109.007 38.5588 108.196 38.5588C107.726 38.5588 107.301 38.6741 106.919 38.9049C106.545 39.1277 106.25 39.442 106.035 39.8478C105.821 40.2536 105.713 40.7152 105.713 41.2324C105.713 41.7894 105.876 42.227 106.202 42.5453C106.537 42.8556 107.006 43.0108 107.611 43.0108C107.993 43.0108 108.347 42.9352 108.673 42.784C109.007 42.6328 109.282 42.41 109.497 42.1156L110.332 42.7124C110.038 43.1182 109.644 43.4365 109.151 43.6673C108.657 43.898 108.128 44.0134 107.563 44.0134ZM117.185 38.6184H114.846L113.807 43.9418H112.661L113.7 38.6184H111.408L111.599 37.6158H117.376L117.185 38.6184ZM120.023 44.0134C119.426 44.0134 118.905 43.902 118.459 43.6792C118.013 43.4485 117.667 43.1262 117.421 42.7124C117.174 42.2986 117.051 41.8212 117.051 41.2801C117.051 40.5719 117.21 39.9354 117.528 39.3704C117.846 38.8054 118.288 38.3638 118.853 38.0455C119.418 37.7193 120.054 37.5562 120.763 37.5562C121.359 37.5562 121.881 37.6676 122.326 37.8904C122.772 38.1132 123.114 38.4314 123.353 38.8452C123.599 39.251 123.723 39.7285 123.723 40.2775C123.723 40.9857 123.564 41.6263 123.245 42.1992C122.927 42.7641 122.485 43.2097 121.92 43.536C121.363 43.8543 120.731 44.0134 120.023 44.0134ZM120.094 43.0108C120.564 43.0108 120.985 42.8994 121.359 42.6766C121.741 42.4459 122.036 42.1276 122.243 41.7217C122.457 41.3159 122.565 40.8544 122.565 40.3372C122.565 39.7722 122.402 39.3346 122.076 39.0243C121.749 38.7139 121.284 38.5588 120.679 38.5588C120.21 38.5588 119.788 38.6741 119.414 38.9049C119.04 39.1277 118.745 39.442 118.531 39.8478C118.316 40.2536 118.208 40.7152 118.208 41.2324C118.208 41.7894 118.371 42.227 118.698 42.5453C119.032 42.8556 119.497 43.0108 120.094 43.0108ZM129.684 40.6833C130.01 40.7788 130.253 40.934 130.412 41.1488C130.571 41.3557 130.651 41.6302 130.651 41.9724C130.651 42.5851 130.4 43.0665 129.899 43.4166C129.405 43.7667 128.721 43.9418 127.846 43.9418H124.742L126.02 37.6158H128.908C129.592 37.6158 130.114 37.7392 130.472 37.9858C130.838 38.2325 131.021 38.5906 131.021 39.0601C131.021 39.442 130.901 39.7762 130.663 40.0627C130.432 40.3412 130.106 40.5481 129.684 40.6833ZM126.592 40.3372H128.311C128.773 40.3372 129.143 40.2377 129.421 40.0388C129.708 39.8399 129.851 39.5813 129.851 39.263C129.851 38.7537 129.465 38.4991 128.693 38.4991H126.951L126.592 40.3372ZM127.882 43.0586C128.399 43.0586 128.805 42.9591 129.099 42.7602C129.393 42.5612 129.541 42.2827 129.541 41.9247C129.541 41.6621 129.445 41.4711 129.254 41.3517C129.071 41.2244 128.777 41.1608 128.371 41.1608H126.425L126.055 43.0586H127.882ZM133.256 41.1369V41.2085C133.256 41.7973 133.423 42.2469 133.757 42.5573C134.091 42.8596 134.593 43.0108 135.261 43.0108C135.651 43.0108 136.017 42.9472 136.359 42.8198C136.701 42.6846 136.988 42.5055 137.218 42.2827L137.708 43.1063C137.397 43.3928 137.019 43.6156 136.574 43.7747C136.128 43.9338 135.659 44.0134 135.165 44.0134C134.545 44.0134 134.008 43.902 133.554 43.6792C133.101 43.4564 132.75 43.1381 132.504 42.7244C132.257 42.3106 132.134 41.8252 132.134 41.2682C132.134 40.56 132.285 39.9234 132.587 39.3585C132.898 38.7935 133.323 38.3519 133.864 38.0336C134.414 37.7153 135.026 37.5562 135.703 37.5562C136.562 37.5562 137.246 37.8028 137.756 38.2962C138.273 38.7816 138.531 39.446 138.531 40.2895C138.531 40.5441 138.504 40.8266 138.448 41.1369H133.256ZM135.655 38.511C135.09 38.511 134.604 38.6702 134.199 38.9885C133.793 39.3067 133.518 39.7444 133.375 40.3014H137.457C137.489 39.7364 137.338 39.2988 137.004 38.9885C136.677 38.6702 136.228 38.511 135.655 38.511ZM139.961 40.1701H143.172L142.969 41.1608H139.77L139.961 40.1701ZM145.462 37.6158H146.607L146.07 40.3014H149.675L150.212 37.6158H151.358L150.093 43.9418H148.947L149.484 41.2921H145.879L145.342 43.9418H144.196L145.462 37.6158ZM159.59 37.6158L158.337 43.9418H157.238L157.394 43.166C157.107 43.4365 156.773 43.6474 156.391 43.7986C156.017 43.9418 155.607 44.0134 155.162 44.0134C154.621 44.0134 154.139 43.906 153.717 43.6912C153.296 43.4684 152.965 43.1501 152.727 42.7363C152.488 42.3225 152.369 41.8371 152.369 41.2801C152.369 40.564 152.524 39.9234 152.834 39.3585C153.144 38.7935 153.57 38.3519 154.111 38.0336C154.66 37.7153 155.273 37.5562 155.949 37.5562C156.49 37.5562 156.952 37.6516 157.334 37.8426C157.724 38.0336 158.022 38.3161 158.229 38.6901L158.444 37.6158H159.59ZM155.412 43.0108C155.882 43.0108 156.303 42.8994 156.677 42.6766C157.059 42.4459 157.354 42.1276 157.561 41.7217C157.776 41.3159 157.883 40.8544 157.883 40.3372C157.883 39.7722 157.72 39.3346 157.394 39.0243C157.067 38.7139 156.602 38.5588 155.997 38.5588C155.528 38.5588 155.106 38.6741 154.732 38.9049C154.358 39.1277 154.064 39.442 153.849 39.8478C153.634 40.2536 153.526 40.7152 153.526 41.2324C153.526 41.7894 153.69 42.227 154.016 42.5453C154.35 42.8556 154.815 43.0108 155.412 43.0108ZM160.896 40.1701H164.106L163.903 41.1608H160.705L160.896 40.1701ZM172.198 42.9034H173.427L172.854 45.768H171.756L172.114 43.9418H165.239L164.857 45.768H163.759L164.344 42.9034H164.69C165.231 42.8716 165.697 42.4459 166.087 41.6263C166.477 40.7987 166.839 39.6648 167.173 38.2246L167.806 35.5868H173.666L172.198 42.9034ZM168.188 38.4275C167.917 39.5972 167.639 40.56 167.352 41.3159C167.074 42.0719 166.743 42.601 166.361 42.9034H171.028L172.282 36.6252H168.617L168.188 38.4275ZM177.533 44.0134C176.937 44.0134 176.416 43.902 175.97 43.6792C175.524 43.4485 175.178 43.1262 174.931 42.7124C174.685 42.2986 174.561 41.8212 174.561 41.2801C174.561 40.5719 174.721 39.9354 175.039 39.3704C175.357 38.8054 175.799 38.3638 176.364 38.0455C176.929 37.7193 177.565 37.5562 178.274 37.5562C178.87 37.5562 179.391 37.6676 179.837 37.8904C180.283 38.1132 180.625 38.4314 180.864 38.8452C181.11 39.251 181.234 39.7285 181.234 40.2775C181.234 40.9857 181.074 41.6263 180.756 42.1992C180.438 42.7641 179.996 43.2097 179.431 43.536C178.874 43.8543 178.242 44.0134 177.533 44.0134ZM177.605 43.0108C178.075 43.0108 178.496 42.8994 178.87 42.6766C179.252 42.4459 179.547 42.1276 179.754 41.7217C179.968 41.3159 180.076 40.8544 180.076 40.3372C180.076 39.7722 179.913 39.3346 179.586 39.0243C179.26 38.7139 178.795 38.5588 178.19 38.5588C177.72 38.5588 177.299 38.6741 176.925 38.9049C176.551 39.1277 176.256 39.442 176.042 39.8478C175.827 40.2536 175.719 40.7152 175.719 41.2324C175.719 41.7894 175.882 42.227 176.209 42.5453C176.543 42.8556 177.008 43.0108 177.605 43.0108ZM183.519 37.6158H184.664L184.127 40.3014H187.732L188.269 37.6158H189.415L188.15 43.9418H187.004L187.541 41.2921H183.936L183.399 43.9418H182.253L183.519 37.6158ZM197.265 37.6158L192.777 44.6341C192.371 45.2707 191.985 45.7123 191.619 45.959C191.253 46.2056 190.819 46.329 190.318 46.329C190.008 46.329 189.705 46.2772 189.411 46.1738C189.117 46.0783 188.89 45.943 188.731 45.768L189.328 44.9205C189.614 45.207 189.972 45.3502 190.402 45.3502C190.672 45.3502 190.911 45.2786 191.118 45.1354C191.325 44.9922 191.54 44.7495 191.762 44.4073L192.085 43.906L190.557 37.6158H191.703L192.92 42.6766L196.107 37.6158H197.265Z" fill="white"/>
<path d="M9.52171 29.4218C7.81423 29.4218 6.15697 29.2109 4.54993 28.7891C2.94289 28.3672 1.63717 27.8048 0.632772 27.1017L2.59135 22.7024C3.53549 23.3251 4.63029 23.8273 5.87574 24.209C7.1212 24.5907 8.34657 24.7815 9.55185 24.7815C11.8419 24.7815 12.9869 24.209 12.9869 23.064C12.9869 22.4614 12.6554 22.0194 11.9925 21.7382C11.3497 21.4369 10.3051 21.1255 8.85881 20.8041C7.27186 20.4626 5.94605 20.101 4.88139 19.7193C3.81672 19.3176 2.90272 18.6848 2.13937 17.821C1.37603 16.9572 0.994356 15.7921 0.994356 14.3257C0.994356 13.0401 1.3459 11.885 2.04898 10.8605C2.75206 9.81595 3.79663 8.99235 5.18271 8.38971C6.58887 7.78707 8.30639 7.48575 10.3353 7.48575C11.7214 7.48575 13.0873 7.64645 14.4332 7.96786C15.7791 8.26918 16.9643 8.72116 17.9888 9.3238L16.1508 13.7532C14.142 12.6685 12.1934 12.1261 10.3051 12.1261C9.11995 12.1261 8.25617 12.3069 7.71379 12.6685C7.17142 13.0099 6.90023 13.4619 6.90023 14.0244C6.90023 14.5869 7.22164 15.0087 7.86445 15.2899C8.50727 15.5712 9.5418 15.8624 10.9681 16.1638C12.5751 16.5053 13.9009 16.8769 14.9455 17.2786C16.0101 17.6603 16.9241 18.283 17.6875 19.1468C18.4709 19.9905 18.8626 21.1456 18.8626 22.612C18.8626 23.8776 18.5111 25.0226 17.808 26.0471C17.1049 27.0716 16.0503 27.8952 14.6442 28.5179C13.238 29.1205 11.5305 29.4218 9.52171 29.4218ZM25.814 12.6383H19.3356V7.90759H38.2283V12.6383H31.7801V29H25.814V12.6383ZM49.6714 23.3954H46.4172V29H40.451V7.90759H50.0933C52.0016 7.90759 53.6589 8.229 55.0651 8.87182C56.4712 9.49455 57.556 10.3985 58.3193 11.5837C59.0827 12.7488 59.4643 14.1248 59.4643 15.7118C59.4643 17.2385 59.1028 18.5743 58.3796 19.7193C57.6765 20.8443 56.6621 21.7281 55.3363 22.371L59.8862 29H53.4982L49.6714 23.3954ZM53.4379 15.7118C53.4379 14.7275 53.1266 13.9641 52.5038 13.4218C51.8811 12.8794 50.9571 12.6082 49.7317 12.6082H46.4172V18.7852H49.7317C50.9571 18.7852 51.8811 18.5241 52.5038 18.0018C53.1266 17.4594 53.4379 16.6961 53.4379 15.7118ZM79.69 24.3898V29H62.7558V7.90759H79.2983V12.5178H68.6617V16.0734H78.0327V20.5329H68.6617V24.3898H79.69ZM99.9349 24.3898V29H83.0007V7.90759H99.5432V12.5178H88.9066V16.0734H98.2777V20.5329H88.9066V24.3898H99.9349ZM107.735 12.6383H101.257V7.90759H120.15V12.6383H113.701V29H107.735V12.6383Z" fill="url(#paint0_linear_121_282)"/>
<path d="M139.049 18.0018C140.254 18.4237 141.198 19.0866 141.881 19.9905C142.564 20.8744 142.906 21.9491 142.906 23.2147C142.906 25.0628 142.162 26.489 140.676 27.4934C139.189 28.4978 137.04 29 134.227 29H122.838V7.90759H133.625C136.317 7.90759 138.366 8.40979 139.772 9.41419C141.178 10.3985 141.881 11.7344 141.881 13.4218C141.881 14.4262 141.63 15.3301 141.128 16.1336C140.646 16.9171 139.953 17.5398 139.049 18.0018ZM128.743 12.2165V16.2843H132.841C134.85 16.2843 135.855 15.6013 135.855 14.2353C135.855 12.8894 134.85 12.2165 132.841 12.2165H128.743ZM133.745 24.6911C135.835 24.6911 136.879 23.978 136.879 22.5517C136.879 21.1255 135.835 20.4124 133.745 20.4124H128.743V24.6911H133.745ZM145.996 7.90759H151.962V29H145.996V7.90759ZM164.342 21.3465L162.112 23.7269V29H156.206V7.90759H162.112V16.676L170.278 7.90759H176.847L168.229 17.2485L177.299 29H170.368L164.342 21.3465ZM195.798 24.3898V29H178.864V7.90759H195.407V12.5178H184.77V16.0734H194.141V20.5329H184.77V24.3898H195.798Z" fill="white"/>
<defs>
<linearGradient id="paint0_linear_121_282" x1="103.926" y1="34.5333" x2="89.1823" y2="-19.1381" gradientUnits="userSpaceOnUse">
<stop stop-color="#68B551"/>
<stop offset="1" stop-color="#3AB177"/>
</linearGradient>
</defs>
</svg>
