<svg width="56" height="56" viewBox="0 0 56 56" fill="none" xmlns="http://www.w3.org/2000/svg">
<g opacity="0.3" filter="url(#filter0_f_121_277)">
<rect x="10" y="10" width="36" height="36" rx="18" fill="url(#paint0_linear_121_277)"/>
</g>
<circle cx="28" cy="22" r="18" transform="rotate(180 28 22)" fill="url(#paint1_linear_121_277)"/>
<path d="M28 31C32.9706 31 37 26.9706 37 22C37 17.0294 32.9706 13 28 13C23.0294 13 19 17.0294 19 22C19 26.9706 23.0294 31 28 31Z" stroke="#23262B" stroke-width="2" stroke-miterlimit="10" stroke-linecap="round" stroke-linejoin="round"/>
<path d="M32 18L29.5 23.5L24 26L26.5 20.5L32 18Z" stroke="#23262B" stroke-width="2" stroke-linecap="round" stroke-linejoin="round"/>
<defs>
<filter id="filter0_f_121_277" x="0" y="0" width="56" height="56" filterUnits="userSpaceOnUse" color-interpolation-filters="sRGB">
<feFlood flood-opacity="0" result="BackgroundImageFix"/>
<feBlend mode="normal" in="SourceGraphic" in2="BackgroundImageFix" result="shape"/>
<feGaussianBlur stdDeviation="5" result="effect1_foregroundBlur_121_277"/>
</filter>
<linearGradient id="paint0_linear_121_277" x1="40.92" y1="43.6" x2="13" y2="12.52" gradientUnits="userSpaceOnUse">
<stop stop-color="#68B551"/>
<stop offset="1" stop-color="#3AB177"/>
</linearGradient>
<linearGradient id="paint1_linear_121_277" x1="40.92" y1="37.6" x2="13" y2="6.52" gradientUnits="userSpaceOnUse">
<stop stop-color="#68B551"/>
<stop offset="1" stop-color="#3AB177"/>
</linearGradient>
</defs>
</svg>
