<svg width="56" height="56" viewBox="0 0 56 56" fill="none" xmlns="http://www.w3.org/2000/svg">
<g opacity="0.3" filter="url(#filter0_f_121_269)">
<rect x="10" y="10" width="36" height="36" rx="18" fill="url(#paint0_linear_121_269)"/>
</g>
<circle cx="28" cy="22" r="18" transform="rotate(180 28 22)" fill="url(#paint1_linear_121_269)"/>
<path d="M23.185 29.605L23.7207 28.7606C23.4668 28.5996 23.154 28.5613 22.8687 28.6563L23.185 29.605ZM19 31L18.0513 30.6838C17.9315 31.0431 18.0251 31.4393 18.2929 31.7071C18.5607 31.9749 18.9569 32.0685 19.3162 31.9487L19 31ZM20.395 26.815L21.3437 27.1313C21.4387 26.846 21.4004 26.5332 21.2394 26.2793L20.395 26.815ZM28 32C33.5228 32 38 27.5228 38 22H36C36 26.4183 32.4183 30 28 30V32ZM22.6492 30.4494C24.1971 31.4315 26.0337 32 28 32V30C26.4242 30 24.9576 29.5454 23.7207 28.7606L22.6492 30.4494ZM22.8687 28.6563L18.6838 30.0513L19.3162 31.9487L23.5012 30.5537L22.8687 28.6563ZM19.9487 31.3162L21.3437 27.1313L19.4463 26.4988L18.0513 30.6838L19.9487 31.3162ZM18 22C18 23.9663 18.5685 25.8029 19.5506 27.3508L21.2394 26.2793C20.4546 25.0424 20 23.5758 20 22H18ZM28 12C22.4772 12 18 16.4772 18 22H20C20 17.5817 23.5817 14 28 14V12ZM38 22C38 16.4772 33.5228 12 28 12V14C32.4183 14 36 17.5817 36 22H38Z" fill="#23262B"/>
<path d="M32 22H32.002V22.002H32V22Z" stroke="#23262B" stroke-width="2" stroke-linecap="round" stroke-linejoin="round"/>
<path d="M28 22H28.002V22.002H28V22Z" stroke="#23262B" stroke-width="2" stroke-linecap="round" stroke-linejoin="round"/>
<path d="M24 22H24.002V22.002H24V22Z" stroke="#23262B" stroke-width="2" stroke-linecap="round" stroke-linejoin="round"/>
<defs>
<filter id="filter0_f_121_269" x="0" y="0" width="56" height="56" filterUnits="userSpaceOnUse" color-interpolation-filters="sRGB">
<feFlood flood-opacity="0" result="BackgroundImageFix"/>
<feBlend mode="normal" in="SourceGraphic" in2="BackgroundImageFix" result="shape"/>
<feGaussianBlur stdDeviation="5" result="effect1_foregroundBlur_121_269"/>
</filter>
<linearGradient id="paint0_linear_121_269" x1="40.92" y1="43.6" x2="13" y2="12.52" gradientUnits="userSpaceOnUse">
<stop stop-color="#68B551"/>
<stop offset="1" stop-color="#3AB177"/>
</linearGradient>
<linearGradient id="paint1_linear_121_269" x1="40.92" y1="37.6" x2="13" y2="6.52" gradientUnits="userSpaceOnUse">
<stop stop-color="#68B551"/>
<stop offset="1" stop-color="#3AB177"/>
</linearGradient>
</defs>
</svg>
