<svg width="56" height="56" viewBox="0 0 56 56" fill="none" xmlns="http://www.w3.org/2000/svg">
<g opacity="0.3" filter="url(#filter0_f_121_273)">
<rect x="10" y="10" width="36" height="36" rx="18" fill="url(#paint0_linear_121_273)"/>
</g>
<circle cx="28" cy="22" r="18" transform="rotate(180 28 22)" fill="url(#paint1_linear_121_273)"/>
<path d="M25.5029 14.2572L24.5744 14.6286V14.6286L25.5029 14.2572ZM26.5572 16.8929L27.4856 16.5215V16.5215L26.5572 16.8929ZM26.2366 18.916L27.0049 19.5562V19.5562L26.2366 18.916ZM25.6693 19.5969L26.4375 20.2371L25.6693 19.5969ZM25.7915 22.2915L25.0844 22.9986L25.7915 22.2915ZM27.7085 24.2085L28.4156 23.5014L27.7085 24.2085ZM30.4031 24.3307L29.7629 23.5625L30.4031 24.3307ZM31.084 23.7634L31.7242 24.5316L31.7242 24.5316L31.084 23.7634ZM33.1071 23.4428L32.7357 24.3713L33.1071 23.4428ZM35.7428 24.4971L36.1142 23.5686L35.7428 24.4971ZM20.8947 14H23.6459V12H20.8947V14ZM24.5744 14.6286L25.6287 17.2643L27.4856 16.5215L26.4314 13.8858L24.5744 14.6286ZM25.4684 18.2758L24.901 18.9567L26.4375 20.2371L27.0049 19.5562L25.4684 18.2758ZM25.0844 22.9986L27.0014 24.9156L28.4156 23.5014L26.4986 21.5844L25.0844 22.9986ZM31.0433 25.099L31.7242 24.5316L30.4438 22.9951L29.7629 23.5625L31.0433 25.099ZM32.7357 24.3713L35.3714 25.4256L36.1142 23.5686L33.4785 22.5144L32.7357 24.3713ZM36 26.3541V29.1053H38V26.3541H36ZM35.1053 30C26.7629 30 20 23.2371 20 14.8947H18C18 24.3417 25.6583 32 35.1053 32V30ZM36 29.1053C36 29.5994 35.5994 30 35.1053 30V32C36.704 32 38 30.704 38 29.1053H36ZM35.3714 25.4256C35.751 25.5775 36 25.9452 36 26.3541H38C38 25.1274 37.2531 24.0242 36.1142 23.5686L35.3714 25.4256ZM31.7242 24.5316C32.0063 24.2964 32.3947 24.2349 32.7357 24.3713L33.4785 22.5144C32.4554 22.1051 31.2903 22.2897 30.4438 22.9951L31.7242 24.5316ZM27.0014 24.9156C28.0986 26.0128 29.8513 26.0923 31.0433 25.099L29.7629 23.5625C29.3656 23.8936 28.7813 23.8671 28.4156 23.5014L27.0014 24.9156ZM24.901 18.9567C23.9077 20.1487 23.9872 21.9014 25.0844 22.9986L26.4986 21.5844C26.1329 21.2187 26.1064 20.6344 26.4375 20.2371L24.901 18.9567ZM25.6287 17.2643C25.7651 17.6053 25.7036 17.9937 25.4684 18.2758L27.0049 19.5562C27.7103 18.7097 27.8949 17.5446 27.4856 16.5215L25.6287 17.2643ZM23.6459 14C24.0548 14 24.4225 14.249 24.5744 14.6286L26.4314 13.8858C25.9758 12.7469 24.8726 12 23.6459 12V14ZM20.8947 12C19.296 12 18 13.296 18 14.8947H20C20 14.4006 20.4006 14 20.8947 14V12Z" fill="#23262B"/>
<defs>
<filter id="filter0_f_121_273" x="0" y="0" width="56" height="56" filterUnits="userSpaceOnUse" color-interpolation-filters="sRGB">
<feFlood flood-opacity="0" result="BackgroundImageFix"/>
<feBlend mode="normal" in="SourceGraphic" in2="BackgroundImageFix" result="shape"/>
<feGaussianBlur stdDeviation="5" result="effect1_foregroundBlur_121_273"/>
</filter>
<linearGradient id="paint0_linear_121_273" x1="40.92" y1="43.6" x2="13" y2="12.52" gradientUnits="userSpaceOnUse">
<stop stop-color="#68B551"/>
<stop offset="1" stop-color="#3AB177"/>
</linearGradient>
<linearGradient id="paint1_linear_121_273" x1="40.92" y1="37.6" x2="13" y2="6.52" gradientUnits="userSpaceOnUse">
<stop stop-color="#68B551"/>
<stop offset="1" stop-color="#3AB177"/>
</linearGradient>
</defs>
</svg>
